<?xml version="1.0" encoding="UTF-8" standalone="no"?>
<svg width="128" height="128" viewBox="0 0 128 128" fill="none" xmlns="http://www.w3.org/2000/svg">
<rect width="128" height="128" rx="16" fill="#478CBF"/>
<path d="M64 22C40.804 22 22 40.804 22 64C22 87.196 40.804 106 64 106C87.196 106 106 87.196 106 64C106 40.804 87.196 22 64 22ZM64 44C70.627 44 76 49.373 76 56C76 62.627 70.627 68 64 68C57.373 68 52 62.627 52 56C52 49.373 57.373 44 64 44ZM42 89.6V84.4C42 78.8 52.8 74 64 74C75.2 74 86 78.8 86 84.4V89.6H42Z" fill="white"/>
</svg>